<svg width="50" height="70" viewBox="0 0 50 70" fill="none" xmlns="http://www.w3.org/2000/svg">
<g clip-path="url(#clip0_244_2116)">
<path d="M16.7259 3.11182C19.5806 1.45218 22.757 0.456401 26.255 0.124474C25.4107 0.0414921 24.5663 0 23.722 0C19.1786 0 15.1177 1.03727 11.4991 3.11182C7.92071 5.18636 5.06604 8.09073 3.0557 11.7834C1.00516 15.4761 0 19.7912 0 24.6456C0 29.5 1.00516 33.8151 3.0557 37.5493C5.10624 41.2835 7.92071 44.1878 11.4991 46.2624C15.0775 48.3369 19.1786 49.3742 23.722 49.3742C24.5663 49.3742 25.4107 49.3327 26.2148 49.2497C22.757 48.9178 19.5806 47.922 16.7259 46.2624C13.1476 44.1878 10.2929 41.2835 8.28256 37.5493C6.23203 33.8151 5.22687 29.5 5.22687 24.6456C5.22687 19.7912 6.23203 15.4761 8.28256 11.7834C10.3331 8.04923 13.1476 5.18636 16.7259 3.11182ZM40.4479 0.456396V3.11182C42.4984 4.39804 44.2273 6.05767 45.6748 8.13221V0.456396H40.4479ZM38.1159 15.808C38.1561 15.891 38.1963 15.974 38.2366 16.057H43.4635C43.4232 15.974 43.383 15.891 43.3428 15.808C41.9758 13.2356 40.0861 11.244 37.6737 9.83336C35.3014 8.42265 32.6077 7.67582 29.6725 7.67582C28.7478 7.67582 27.8632 7.7588 27.0189 7.88328C28.9488 8.17371 30.7581 8.8376 32.4468 9.83336C34.819 11.244 36.7087 13.2356 38.1159 15.808ZM42.0964 35.5577H36.8695C35.6633 37.1759 34.2159 38.545 32.4468 39.5824C30.7581 40.5781 28.9488 41.242 26.9787 41.5324C27.823 41.6569 28.7075 41.7398 29.6323 41.7398C32.5674 41.7398 35.2613 41.0345 37.6737 39.5824C39.4428 38.545 40.9304 37.1759 42.0964 35.5577ZM40.0861 46.3454V66.5514H45.3129V41.5324C43.8253 43.4825 42.0964 45.1006 40.0861 46.3454Z" fill="#EA4D27"/>
</g>
<defs>
<clipPath id="clip0_244_2116">
<rect width="50" height="70" fill="white"/>
</clipPath>
</defs>
</svg>
