<svg width="90" height="51" viewBox="0 0 90 51" fill="none" xmlns="http://www.w3.org/2000/svg">
<path d="M24.1358 0.352634L20.563 18.6344C20.4006 19.1691 20.0488 19.4365 19.5074 19.4365H16.5031C15.9256 19.4365 15.5737 19.1599 15.4475 18.6067L12.7408 4.58427C12.5604 3.62549 12.434 2.90639 12.3619 2.42696H11.7935L11.3875 4.58427L8.70789 18.6067C8.67178 18.8464 8.54549 19.0493 8.32896 19.2152C8.13044 19.3627 7.90495 19.4365 7.6523 19.4365H4.62084C4.0615 19.4365 3.7186 19.1691 3.59231 18.6344L0.0195312 0.352634H2.88858L5.56817 14.9006C5.6223 15.2141 5.73057 16.0253 5.89297 17.3345H6.5155C6.60575 16.5417 6.74109 15.7303 6.9215 14.9006L9.60109 1.26534C9.72737 0.656869 10.0703 0.352634 10.6296 0.352634H13.5257C13.7784 0.352634 13.9949 0.444855 14.1753 0.629211C14.3738 0.795157 14.5001 1.00717 14.5543 1.26534L17.2068 14.9283C17.3512 15.6658 17.4865 16.4678 17.6128 17.3345H18.2353C18.2714 17.0763 18.3256 16.6799 18.3977 16.1452C18.4699 15.6105 18.533 15.2141 18.5872 14.9559L21.2668 0.352634H24.1358ZM39.2432 17.1409L39.3785 19.2705C37.7368 19.4181 35.0665 19.4918 31.3668 19.4918C30.2123 19.4918 29.3013 19.1876 28.6331 18.5791C27.9657 17.9522 27.6232 17.1132 27.6046 16.0622V3.72688C27.6232 2.67588 27.9657 1.84615 28.6331 1.23768C29.3013 0.610802 30.2123 0.297319 31.3668 0.297319C35.0665 0.297319 37.7368 0.371043 39.3785 0.51858L39.2432 2.67588H31.8269C31.2856 2.67588 30.8982 2.81417 30.6631 3.09075C30.4466 3.34892 30.3383 3.8006 30.3383 4.44598V8.26275H38.2155V10.503H30.3383V15.3708C30.3383 16.0162 30.4466 16.4771 30.6631 16.7537C30.8982 17.0118 31.2856 17.1409 31.8269 17.1409H39.2432ZM56.8779 19.4365H53.9817L52.3848 13.4901C51.9881 12.2178 51.2032 11.5817 50.03 11.5817L46.1866 11.554V19.4365H43.507V0.352634C45.0413 0.186687 47.2151 0.103714 50.03 0.103714C52.2859 0.103714 53.8735 0.50017 54.7937 1.293C55.7326 2.08582 56.2012 3.53327 56.2012 5.63526C56.2012 7.16568 55.9305 8.31806 55.3892 9.09248C54.8665 9.8669 53.9911 10.3371 52.7638 10.503V10.6413C53.9733 11.0101 54.7582 11.932 55.1185 13.4071L56.8779 19.4365ZM46.1866 9.20311H49.9759C51.3115 9.1847 52.2224 8.94494 52.7096 8.48401C53.2154 8.00458 53.4675 7.11037 53.4675 5.80121C53.4675 4.51054 53.2154 3.63466 52.7096 3.17372C52.2224 2.71279 51.3115 2.48228 49.9759 2.48228C48.1354 2.48228 46.8726 2.49153 46.1866 2.50994V9.20311ZM73.506 2.81417H67.5785V19.4365H64.8447V2.81417H58.9713V0.352634H73.506V2.81417ZM83.7905 12.8263V19.4365H81.0838V12.7986L74.9126 0.352634H77.7817L81.5439 8.17977C81.6886 8.49326 81.9593 9.23077 82.3559 10.3924H82.5454C82.9243 9.24918 83.195 8.52091 83.3574 8.20743L87.1197 0.352634H89.9346L83.7905 12.8263Z" fill="white"/>
<path d="M7.18513 34.6413L7.32047 35.6923C6.57166 35.9136 5.64682 36.0242 4.54614 36.0242C3.18376 36.0242 2.22747 35.6554 1.67709 34.9179C1.12671 34.1804 0.851562 32.9035 0.851562 31.0873C0.851562 29.2711 1.12671 27.9942 1.67709 27.2567C2.22747 26.5192 3.18376 26.1504 4.54614 26.1504C5.52054 26.1504 6.38218 26.2426 7.131 26.427L6.99567 27.4918C6.27392 27.4181 5.45735 27.3812 4.54614 27.3812C3.68906 27.3812 3.0936 27.6485 2.75975 28.1832C2.43495 28.718 2.27256 29.686 2.27256 31.0873C2.27256 32.4886 2.43495 33.4566 2.75975 33.9914C3.0936 34.5261 3.68906 34.7934 4.54614 34.7934C5.69199 34.7934 6.57165 34.7427 7.18513 34.6413ZM16.2967 35.8583H14.8486L14.0501 32.885C13.8516 32.2489 13.4592 31.9309 12.8727 31.9309L10.951 31.917V35.8583H9.61123V26.3163C10.3781 26.2334 11.4653 26.1919 12.8727 26.1919C14.0005 26.1919 14.7945 26.3901 15.2546 26.7865C15.7237 27.183 15.9583 27.9067 15.9583 28.9576C15.9583 29.7228 15.823 30.299 15.5523 30.6863C15.2906 31.0735 14.8531 31.3086 14.2396 31.3915V31.4607C14.844 31.645 15.2365 32.1061 15.417 32.8436L16.2967 35.8583ZM10.951 30.7416H12.8457C13.5133 30.7323 13.9689 30.6125 14.2125 30.382C14.4651 30.1424 14.5915 29.6952 14.5915 29.0406C14.5915 28.3952 14.4651 27.9574 14.2125 27.7269C13.9689 27.4964 13.5133 27.3812 12.8457 27.3812C11.9254 27.3812 11.2938 27.3857 10.951 27.395V30.7416ZM24.4181 34.7105L24.4858 35.7753C23.6648 35.849 22.3295 35.8859 20.48 35.8859C19.9026 35.8859 19.447 35.7338 19.1131 35.4296C18.7793 35.1161 18.6079 34.6966 18.5988 34.1711V28.0035C18.6079 27.478 18.7793 27.0631 19.1131 26.7589C19.447 26.4454 19.9026 26.2887 20.48 26.2887C22.3295 26.2887 23.6648 26.3256 24.4858 26.3993L24.4181 27.478H20.71C20.4394 27.478 20.2454 27.5471 20.1281 27.6854C20.0198 27.8144 19.9657 28.0404 19.9657 28.363V30.2714H23.9039V31.3915H19.9657V33.8254C19.9657 34.1481 20.0198 34.3786 20.1281 34.5169C20.2454 34.6459 20.4394 34.7105 20.71 34.7105H24.4181ZM31.9096 32.9819H28.1879L27.3218 35.8583H25.9414L28.8646 26.6897C28.9365 26.4408 29.1031 26.3163 29.3653 26.3163H30.7457C31.0164 26.3163 31.1788 26.4408 31.2329 26.6897L34.1696 35.8583H32.7757L31.9096 32.9819ZM31.5577 31.7787L30.4615 28.1556C30.4344 28.0726 30.3938 27.9436 30.3397 27.7684C30.294 27.5932 30.2585 27.4641 30.2314 27.3812H29.866L29.6495 28.1556L28.5533 31.7787H31.5577ZM41.7796 27.5471H38.8158V35.8583H37.4489V27.5471H34.5122V26.3163H41.7796V27.5471ZM45.2576 35.8583H43.9043V26.3163H45.2576V35.8583ZM55.2122 26.3163L52.4514 35.471C52.3702 35.7292 52.1993 35.8583 51.9371 35.8583H50.6109C50.3495 35.8583 50.1778 35.7292 50.0966 35.471L47.3358 26.3163H48.7297L50.8409 33.7424C50.8866 33.9176 50.972 34.2679 51.0981 34.7934H51.4635C51.5176 34.5261 51.6039 34.1757 51.7206 33.7424L53.8182 26.3163H55.2122ZM73.6022 32.5532V35.8583H72.2489V32.5393L69.1633 26.3163H70.5978L72.4789 30.2299C72.5508 30.3866 72.6862 30.7554 72.8849 31.3362H72.9797C73.1691 30.7647 73.3045 30.4004 73.3857 30.2437L75.2668 26.3163H76.6742L73.6022 32.5532Z" fill="white"/>
<path d="M57.3003 35.8582H58.6536V26.3163H57.3003V35.8582Z" fill="#EA4D27"/>
<path d="M65.0895 27.5471H68.0533V26.3163H60.7859V27.5471H63.7227V35.8582H65.0895V27.5471Z" fill="#EA4D27"/>
<path d="M6.84804 42.1711H3.38352C3.06777 42.1711 2.84219 42.2403 2.70686 42.3786C2.58058 42.5076 2.51739 42.7335 2.51739 43.0562V45.1167H6.33378V46.2368H2.51739V50.5514H1.16406V42.7658C1.16406 42.2034 1.33095 41.7655 1.6648 41.452C2.00761 41.1386 2.46774 40.9819 3.04519 40.9819C4.83158 40.9819 6.12172 41.0233 6.9157 41.1063L6.84804 42.1711ZM15.8482 41.0095V46.873C15.8482 48.2743 15.591 49.2699 15.0768 49.86C14.5716 50.4408 13.7009 50.7312 12.4649 50.7312C11.1927 50.7312 10.2906 50.4408 9.7582 49.86C9.23497 49.2699 8.97327 48.2743 8.97327 46.873V41.0095H10.3266V46.873C10.3266 47.8502 10.48 48.5324 10.7867 48.9196C11.0935 49.3068 11.6348 49.5004 12.4107 49.5004C13.1776 49.5004 13.7145 49.3068 14.0212 48.9196C14.337 48.5324 14.4948 47.8502 14.4948 46.873V41.0095H15.8482ZM25.0511 42.2403H22.0873V50.5514H20.7204V42.2403H17.7837V41.0095H25.0511V42.2403ZM33.8478 41.0095V46.873C33.8478 48.2743 33.5906 49.2699 33.0764 49.86C32.5706 50.4408 31.7002 50.7312 30.4644 50.7312C29.1923 50.7312 28.2898 50.4408 27.7578 49.86C27.2342 49.2699 26.9729 48.2743 26.9729 46.873V41.0095H28.3262V46.873C28.3262 47.8502 28.4793 48.5324 28.7863 48.9196C29.0925 49.3068 29.6338 49.5004 30.4103 49.5004C31.1766 49.5004 31.7137 49.3068 32.0208 48.9196C32.3363 48.5324 32.4944 47.8502 32.4944 46.873V41.0095H33.8478ZM43.2804 50.5514H41.8324L41.0339 47.5782C40.8351 46.9421 40.4427 46.624 39.8565 46.624L37.9348 46.6102V50.5514H36.595V41.0095C37.3622 40.9265 38.4491 40.8851 39.8565 40.8851C40.984 40.8851 41.7783 41.0832 42.2384 41.4797C42.7078 41.8761 42.9421 42.5998 42.9421 43.6508C42.9421 44.416 42.8068 44.9922 42.5361 45.3794C42.2748 45.7666 41.8366 46.0017 41.2234 46.0847V46.1539C41.8282 46.3382 42.2206 46.7992 42.4008 47.5367L43.2804 50.5514ZM37.9348 45.4348H39.8295C40.4968 45.4255 40.9527 45.3057 41.1963 45.0752C41.4492 44.8355 41.5752 44.3883 41.5752 43.7338C41.5752 43.0884 41.4492 42.6506 41.1963 42.4201C40.9527 42.1896 40.4968 42.0743 39.8295 42.0743C38.9092 42.0743 38.2774 42.0789 37.9348 42.0882V45.4348ZM51.2668 49.4036L51.3344 50.4685C50.5131 50.5422 49.1776 50.5791 47.3286 50.5791C46.7509 50.5791 46.295 50.427 45.9617 50.1227C45.6276 49.8093 45.4559 49.3898 45.4475 48.8643V42.6966C45.4559 42.1711 45.6276 41.7563 45.9617 41.452C46.295 41.1386 46.7509 40.9819 47.3286 40.9819C49.1776 40.9819 50.5131 41.0188 51.3344 41.0925L51.2668 42.1711H47.5587C47.288 42.1711 47.0934 42.2403 46.9767 42.3786C46.8685 42.5076 46.8143 42.7335 46.8143 43.0562V44.9646H50.7525V46.0847H46.8143V48.5186C46.8143 48.8412 46.8685 49.0717 46.9767 49.21C47.0934 49.3391 47.288 49.4036 47.5587 49.4036H51.2668Z" fill="white"/>
</svg>
